# xmcd
#
# Track frame offsets:
#	150
#	15666
#	39309
#	58362
#	89456
#	110139
#	122857
#	149905
#	165802
#	197360
#	219018
#	239466
#	258691
#	283556
#	306523
#
# Disc length: 4637 seconds
#
# Revision: 0
# Processed by: cddbd v1.5.2PL0 Copyright (c) Steve Scherf et al.
# Submitted via: EasyCDDAExtractor 16.0.6.1
#
DISCID=df121b0f
DTITLE=Various Artist - Τα blues του party Cd3
DYEAR=2013
DGENRE=Blues
TTITLE0=Deep Purple - Soldier of fortune
TTITLE1=Scorpions - Wind of change
TTITLE2=Gary Moore - Still got the blues
TTITLE3=Barclay James Harvest - Poor Man's Moody
TTITLE4=Marianne Faithfull - So sad
TTITLE5=Rare Bird - Sympathy
TTITLE6=Lynyrd Skynyrd - Simple man
TTITLE7=Deep Purple - When a blind man cries
TTITLE8=Cockney Rebel - Sebastian
TTITLE9=UFO - Try me
TTITLE10=Scorpions - Send me an angel
TTITLE11=Gary Moore - Empty rooms
TTITLE12=Extreme - More than words
TTITLE13=Deep Purple - Lalena
TTITLE14=Lynyrd Skynyrd - Free bird
EXTD=
EXTT0=
EXTT1=
EXTT2=
EXTT3=
EXTT4=
EXTT5=
EXTT6=
EXTT7=
EXTT8=
EXTT9=
EXTT10=
EXTT11=
EXTT12=
EXTT13=
EXTT14=
PLAYORDER=
